name C:/MyDriveSym/Projects/mobilecap/Data\Session20210813_0002\mocap\ForceDataProcessed\walkingTS1_forces.mot
datacolumns 19
datarows 14
range 0.45950000 0.46600000
endheader 
time	R_ground_force_vx	R_ground_force_vy	R_ground_force_vz	R_ground_force_px	R_ground_force_py	R_ground_force_pz	R_ground_torque_x	R_ground_torque_y	R_ground_torque_z	L_ground_force_vx	L_ground_force_vy	L_ground_force_vz	L_ground_force_px	L_ground_force_py	L_ground_force_pz	L_ground_torque_x	L_ground_torque_y	L_ground_torque_z	
          0.45950000	         -9.90800000	        735.93519600	         -8.86055800	          0.19406000	          0.00600000	         -0.20071500	          0.00000000	         -4.40148200	          0.00000000	          0.00000000	          0.00000000	          0.00000000	          0.68612700	          0.00000000	         -0.24873200	          0.00000000	          0.00000000	          0.00000000	
          0.46000000	         -9.75669000	        735.97799800	         -8.90899900	          0.19419400	          0.00600000	         -0.20069000	          0.00000000	         -4.40289300	          0.00000000	          0.00000000	          0.00000000	          0.00000000	          0.68612700	          0.00000000	         -0.24873200	          0.00000000	          0.00000000	          0.00000000	
          0.46050000	         -9.60514200	        736.02142700	         -8.95742000	          0.19433000	          0.00600000	         -0.20066400	          0.00000000	         -4.40431500	          0.00000000	          0.00000000	          0.00000000	          0.00000000	          0.68612700	          0.00000000	         -0.24873200	          0.00000000	          0.00000000	          0.00000000	
          0.46100000	         -9.45335600	        736.06551100	         -9.00581800	          0.19446500	          0.00600000	         -0.20063900	          0.00000000	         -4.40575000	          0.00000000	          0.00000000	          0.00000000	          0.00000000	          0.68612700	          0.00000000	         -0.24873200	          0.00000000	          0.00000000	          0.00000000	
          0.46150000	         -9.30132800	        736.11027300	         -9.05418800	          0.19460200	          0.00600000	         -0.20061300	          0.00000000	         -4.40719700	          0.00000000	          0.00000000	          0.00000000	          0.00000000	          0.68612700	          0.00000000	         -0.24873200	          0.00000000	          0.00000000	          0.00000000	
          0.46200000	         -9.14905800	        736.15574100	         -9.10252700	          0.19473900	          0.00600000	         -0.20058700	          0.00000000	         -4.40865700	          0.00000000	          0.00000000	          0.00000000	          0.00000000	          0.68612700	          0.00000000	         -0.24873200	          0.00000000	          0.00000000	          0.00000000	
          0.46250000	         -8.99654300	        736.20194100	         -9.15083000	          0.19487600	          0.00600000	         -0.20056100	          0.00000000	         -4.41012800	          0.00000000	          0.00000000	          0.00000000	          0.00000000	          0.68612700	          0.00000000	         -0.24873200	          0.00000000	          0.00000000	          0.00000000	
          0.46300000	         -8.84378200	        736.24889600	         -9.19909300	          0.19501400	          0.00600000	         -0.20053500	          0.00000000	         -4.41161300	          0.00000000	          0.00000000	          0.00000000	          0.00000000	          0.68612700	          0.00000000	         -0.24873200	          0.00000000	          0.00000000	          0.00000000	
          0.46350000	         -8.69077300	        736.29663400	         -9.24731200	          0.19515200	          0.00600000	         -0.20050900	          0.00000000	         -4.41310900	          0.00000000	          0.00000000	          0.00000000	          0.00000000	          0.68612700	          0.00000000	         -0.24873200	          0.00000000	          0.00000000	          0.00000000	
          0.46400000	         -8.53751500	        736.34517800	         -9.29548200	          0.19529100	          0.00600000	         -0.20048200	          0.00000000	         -4.41461800	          0.00000000	          0.00000000	          0.00000000	          0.00000000	          0.68612700	          0.00000000	         -0.24873200	          0.00000000	          0.00000000	          0.00000000	
          0.46450000	         -8.38400600	        736.39455600	         -9.34360100	          0.19543100	          0.00600000	         -0.20045600	          0.00000000	         -4.41614000	          0.00000000	          0.00000000	          0.00000000	          0.00000000	          0.68612700	          0.00000000	         -0.24873200	          0.00000000	          0.00000000	          0.00000000	
          0.46500000	         -8.23024500	        736.44479100	         -9.39166400	          0.19557100	          0.00600000	         -0.20042900	          0.00000000	         -4.41767400	          0.00000000	          0.00000000	          0.00000000	          0.00000000	          0.68612700	          0.00000000	         -0.24873200	          0.00000000	          0.00000000	          0.00000000	
          0.46550000	         -8.07623100	        736.49590800	         -9.43966600	          0.19571100	          0.00600000	         -0.20040200	          0.00000000	         -4.41922000	          0.00000000	          0.00000000	          0.00000000	          0.00000000	          0.68612700	          0.00000000	         -0.24873200	          0.00000000	          0.00000000	          0.00000000	
          0.46600000	         -7.92196300	        736.54793300	         -9.48760600	          0.19585200	          0.00600000	         -0.20037500	          0.00000000	         -4.42077900	          0.00000000	          0.00000000	          0.00000000	          0.00000000	          0.68612700	          0.00000000	         -0.24873200	          0.00000000	          0.00000000	          0.00000000	
